<svg id="Layer_4" data-name="Layer 4" xmlns="http://www.w3.org/2000/svg" viewBox="0 0 824.39 354.04"><defs><style>.cls-1{fill:#d1d1d1}.cls-1,.cls-2,.cls-3,.cls-4,.cls-5{stroke-miterlimit:10;stroke-width:.05px}.cls-1,.cls-4{stroke:#d1d1d1}.cls-2{fill:#ff989c;stroke:#ff989c}.cls-3,.cls-5{stroke:#000}.cls-7,.cls-8{stroke-width:0}.cls-5,.cls-7{fill:none}.cls-8{fill:#fff}.cls-4{fill:#adb2b2}</style></defs><path class="cls-8" d="M737.53 183.94h13.85v13.83h-13.85zM640.66 183.94h13.83v13.83h-13.83z"/><path class="cls-2" d="M779.05 225.45h-13.84v27.68h27.68v-27.68h-13.84zM612.98 225.45v27.68h27.68v-27.68h-27.68z"/><path class="cls-5" d="M239.32 197.77h55.36v-13.83H267v-13.85H197.8v13.85h13.85v13.83h27.67zM336.19 308.48h-27.68V336.17h27.68v-13.84h13.84v-13.85h-13.84zM405.39 322.33v13.84h27.68v-13.84h-27.68zM709.86 322.33v13.84h27.67v-13.84h-27.67zM640.66 322.33v13.84h27.67v-13.84h-27.67zM294.68 197.77h13.83v13.85h-13.83zM322.36 59.38v221.44h13.83v-27.68h41.52v41.52h41.52v-41.52h41.53v41.52h41.52v-41.52h41.52v41.52h41.52v-96.88h13.85v-69.2H613v-13.83h27.68v13.83h13.83v13.85h13.83v13.83h55.36V31.7h-13.83v27.68h-41.53V17.86h-41.52v41.52H585.3V17.86h-41.52v41.52h-41.52V17.86h-41.52v41.52h-41.53V17.86h-41.52v41.52h-41.52V31.7h-13.83v27.68Zm124.55 166.07V73.23h27.68v13.83h27.68v13.83h27.68v13.85h13.83v13.83h27.68v13.85h13.83v27.67h-13.83v13.85h-27.68v13.83h-13.83v13.85h-27.68v13.83h-27.68v13.83h-27.68v-13.83Z"/><path class="cls-5" d="M806.72 239.29v-41.52h-13.83v-69.2h-27.68v13.85h-13.83v13.83h-13.85v13.83h-69.2v-13.83H654.5v-13.83h-13.83v-13.85h-27.68v69.2h-13.83v69.2h13.83v13.85h27.68v13.83h124.55v-13.83h27.68v-13.85h13.83v-27.68Zm-166.06-13.83v-27.68h13.83v-13.83h13.83v41.52h-27.67Zm110.71 27.68v13.83h-96.88v-27.68h13.83v13.85H696v-13.85h13.85v13.85h27.67v-13.85h13.85v13.85Zm13.83-55.36v27.68h-27.68v-27.68h13.85v-13.83h13.83v13.83Z"/><path class="cls-3" d="M806.72 197.77v69.2h13.85V197.77h-13.85zM792.89 266.97h13.83v13.85h-13.83zM792.89 156.26v41.51h13.83v-69.19h-13.83v27.68zM792.89 128.58v-13.84h-27.68v13.84h27.68zM765.21 280.82v13.83h27.68v-13.83h-27.68zM751.37 197.77h-13.84v27.68h27.68v-41.51h-13.84v13.83zM751.37 128.58h13.83v13.85h-13.83zM737.53 294.65h-96.87v-13.83h-27.68v-13.85h-13.83V197.77H585.3v96.88H543.78V253.13h-41.51V294.65H460.75V253.13h-41.53V294.65h-41.51V253.13H336.19V280.82h-13.83V31.7h-13.85V170.09h-27.68v-13.83H197.8v13.83H267v13.85h27.68v13.83h13.83v13.85h-13.83v-13.85h-83.03v13.85h69.18v13.83h27.68v69.2h-13.83V350h41.51v-13.83h-27.68V308.48H350.03v13.85h13.84v-13.85H391.56V336.17h13.83v-13.84h27.68v-13.85h193.74V336.17h13.85v-13.84h27.67v-13.85h27.68V336.17h13.85v-13.84h27.67v-13.85h27.68v-13.83h-27.68z"/><path class="cls-3" d="M737.53 253.13h-27.67v-13.84h-13.85v13.84h-27.68v-13.84H654.5v27.68h96.87v-27.68h-13.84v13.84zM723.69 336.17h-13.83V350H751.37v-27.67h-13.84v13.84h-13.84zM723.69 59.38V156.26h-55.36v13.83h69.2v-13.83h13.84v-13.84h-13.84V31.7h-13.84v27.68zM654.5 336.17h-13.84V350h41.52v-27.67h-13.85v13.84H654.5zM668.33 225.45v-41.51H654.5v13.83h-13.84v27.68h27.67zM654.5 142.42h13.83v13.83H654.5zM640.66 128.58h13.83v13.85h-13.83zM626.81 114.74h-13.83v13.84h27.68v-13.84h-13.85zM599.15 142.42v55.35h13.83v-69.19h-13.83v13.84z"/><path class="cls-5" d="M571.46 128.58h-27.68v-13.84h-13.83v-13.85h-27.68V87.06h-27.68V73.23h-27.68v166.06h27.68v-13.84h27.68v-13.83h27.68v-13.85h13.83v-13.83h27.68v-13.85h13.84v-27.67h-13.84v-13.84z"/><path class="cls-3" d="M474.59 225.45h27.68v-13.83h27.68v-13.85h13.83v-13.83h27.68v-13.85h13.84v-27.67h-13.84v-13.84h-27.68v-13.84h-13.83v-13.85h-27.68V87.06h-27.68V73.23h-27.68v166.06h27.68v-13.84zM419.22 336.17h-13.83V350H446.91v-27.67h-13.84v13.84h-13.85zM336.19 322.33h13.83v13.83h-13.83zM336.19 45.54v13.84H377.71V17.86h41.51V59.38h41.53V17.86h41.52V59.38h41.51V17.86H585.3V59.38h41.51V17.86H668.33V59.38h41.53V31.7h13.83V17.86h-13.83V4.03H336.19v13.83h-13.83V31.7h13.83v13.84zM197.8 183.94v-13.85h-13.83v27.68h27.68v-13.83H197.8z"/><path class="cls-7" d="M640.66 253.13v-27.68h-27.68v27.68h27.68zM765.21 197.77v-13.83h-27.68v41.51h27.68v-27.68zM765.21 225.45v27.68h27.68v-27.68h-27.68zM737.53 253.13h-27.67v-13.84h-13.85v13.84h-27.68v-13.84H654.5v27.68h96.87v-27.68h-13.84v13.84zM668.33 225.45v-41.51h-27.67v41.51h27.67zM571.46 128.58h-27.68v-13.84h-13.83v-13.85h-27.68V87.06h-27.68V73.23h-27.68v166.06h27.68v-13.84h27.68v-13.83h27.68v-13.85h13.83v-13.83h27.68v-13.85h13.84v-27.67h-13.84v-13.84z"/><path d="M709.86 59.38h-387.5v193.76H585.3v-55.36h13.85v-69.2h13.83v-13.83h27.68v13.83h13.83v13.85h13.83v13.83h55.36V59.38h-13.83ZM585.3 156.26v13.83h-13.83v13.85h-27.68v13.83h-13.83v13.85h-27.68v13.83H474.6v13.83h-27.68V73.23h27.68v13.83h27.68v13.83h27.68v13.85h13.83v13.83h27.68v13.85h13.83v13.83Z" style="stroke:#fff;fill:#fff;stroke-miterlimit:10;stroke-width:.05px"/><path class="cls-8" d="M280.83 87.06v27.68h-27.67V87.06H197.8v27.68H142.45v27.68h27.67v27.67h-27.67v27.68h41.52v-27.68h13.83v-13.83h83.03v13.83h27.68V87.06h-27.68zM225.48 211.62h-13.83v-13.85H197.8v27.68h55.36v-13.83h-27.68zM86.85 170.11V197.8h27.68V170.11H86.85zM86.85 59.4v27.67H3.82v27.68H31.5v27.68h27.68v-27.68h55.35V59.4H86.85zM31.5 170.11V197.8h27.68V170.11H31.5z"/><path class="cls-1" d="M792.89 197.77v-69.2h-27.68v13.85h-13.83v13.83h-13.85v13.83h-69.2v-13.83H654.5v-13.83h-13.83v-13.85h-27.68v69.2h-13.83v69.2h13.83v13.85h27.68v13.83h124.55v-13.83h27.68v-13.85h13.83v-69.2H792.9Zm-41.52 55.36v13.83h-96.88v-27.68h13.83v13.85H696v-13.85h13.85v13.85h27.67v-13.85h13.85v13.85Zm-138.39-13.85v-13.83h27.68v-41.52h27.67v41.52h-27.67v27.68h-27.68v-13.85Zm179.91 0v13.85h-27.68v-27.68h-27.68v-41.52h27.68v41.52h27.68v13.83ZM709.86 322.33v13.84h27.67v-13.84h-27.67z"/><path class="cls-4" d="M723.69 45.54V31.7h-13.83v27.68h13.83V45.54z"/><path class="cls-1" d="M640.66 322.33v13.84h27.67v-13.84h-27.67z"/><path class="cls-4" d="M654.5 59.38h13.83V17.86h-41.52V59.38H654.5zM557.62 253.13h-13.84V294.65H585.3V253.13h-27.68zM557.62 17.86h-13.84V59.38H585.3V17.86h-27.68zM474.59 253.13h-13.84V294.65h41.52V253.13h-27.68zM474.59 17.86h-13.84V59.38h41.52V17.86h-27.68z"/><path class="cls-1" d="M405.39 322.33v13.84h27.68v-13.84h-27.68z"/><path class="cls-4" d="M419.22 294.65V253.13h-41.51V294.65h41.51zM405.39 59.38h13.83V17.86h-41.51V59.38h27.68z"/><path class="cls-1" d="M322.36 308.48h-13.85V336.17h27.68v-13.84h13.84v-13.85h-27.67z"/><path class="cls-4" d="M336.19 266.97v-13.84h-13.83V280.82h13.83v-13.85zM336.19 45.54V31.7h-13.83v27.68h13.83V45.54zM308.51 239.29v-13.84h-27.68v-13.83h-27.67v13.83H170.12v27.68H308.51v-13.84z"/><path class="cls-1" d="M294.68 197.77h13.83v13.85h-13.83zM280.83 183.94H267v-13.85H197.8v13.85h13.85v13.83h83.03v-13.83h-13.85z"/><path class="cls-4" d="M183.97 87.06h69.19v27.68h27.67V87.06h27.68V59.38H142.45v27.68h41.52zM114.53 197.8H86.85v27.66H142.22V197.8H114.53zM114.53 114.75v27.68H142.22v-27.68H114.53zM100.7 59.4h13.83V31.72H59.18V59.4h41.52zM3.82 31.72V59.4H31.5V31.72H3.82z"/></svg>
